<svg width="20" height="20" viewBox="0 0 20 20" fill="none" xmlns="http://www.w3.org/2000/svg">
    <path fill-rule="evenodd" clip-rule="evenodd"
        d="M15.9225 8.33333H15.33V6.09666C15.33 3.18999 13.3342 0.833328 10.0008 0.833328C6.6675 0.833328 4.67167 3.18999 4.67167 6.09666V8.33333H4.07917C3.2075 8.33333 2.5 9.13833 2.5 9.99999V18.3333C2.5 19.195 3.20667 20 4.07917 20H15.9217C16.7933 20 17.5008 19.195 17.5008 18.3333V9.99999C17.5008 9.13833 16.7942 8.33333 15.9217 8.33333H15.9225ZM10.0017 15.8333C9.08083 15.8333 8.335 15.0875 8.335 14.1667C8.335 13.2458 9.08083 12.5 10.0017 12.5C10.9225 12.5 11.6683 13.2458 11.6683 14.1667C11.6683 15.0875 10.9225 15.8333 10.0017 15.8333ZM13.2125 7.85083C13.2125 8.06583 13.0358 8.33333 12.8175 8.33333H7.18833C6.97 8.33333 6.79333 8.06583 6.79333 7.85083V6.09666C6.79333 4.26666 7.91833 2.83333 10.0017 2.83333C12.085 2.83333 13.2125 4.26666 13.2125 6.09666V7.85083Z"
        fill="rgba(209, 100, 148, 1)" />
</svg>