<svg width="20" height="18" viewBox="0 0 20 18" fill="none" xmlns="http://www.w3.org/2000/svg">
    <path fill-rule="evenodd" clip-rule="evenodd"
        d="M10.4418 0.0475026C6.70595 0.200836 3.56762 2.60417 2.33762 5.9325L2.31762 5.995C2.28845 6.07584 2.21262 6.1325 2.12262 6.1325C2.11179 6.1325 2.10095 6.13167 2.09012 6.13H2.09095L0.683454 5.9225C0.66762 5.92 0.648454 5.91917 0.63012 5.91917C0.485954 5.91917 0.358454 5.99 0.28012 6.09834L0.279287 6.1C0.233454 6.16584 0.206787 6.2475 0.206787 6.335C0.206787 6.41167 0.22762 6.4825 0.263454 6.54417L0.26262 6.5425L2.49512 10.4592C2.55929 10.5692 2.66929 10.6467 2.79845 10.665H2.80095C2.80929 10.6658 2.81929 10.6658 2.82845 10.6658C2.83762 10.6658 2.84762 10.6658 2.85762 10.665H2.85595C2.97012 10.665 3.07429 10.6183 3.14929 10.5433L6.29095 7.42167C6.36679 7.34584 6.41345 7.24167 6.41345 7.12667C6.41345 6.91834 6.26012 6.74584 6.06012 6.715H6.05762L4.62845 6.5025C4.52679 6.48667 4.45012 6.4 4.45012 6.29584C4.45012 6.265 4.45679 6.23584 4.46845 6.21L4.46762 6.21167C5.56345 3.77584 7.96845 2.11 10.7635 2.11C14.5643 2.11 17.646 5.19167 17.646 8.9925C17.646 12.7025 14.711 15.7267 11.036 15.87H11.0226C10.9426 15.8733 10.8485 15.875 10.7535 15.875C8.49095 15.875 6.48512 14.7783 5.23845 13.0875L5.22512 13.0683C5.03262 12.8367 4.74429 12.69 4.42179 12.69C3.84679 12.69 3.38012 13.1567 3.38012 13.7317C3.38012 13.9433 3.44345 14.1408 3.55262 14.305L3.55012 14.3008C5.19929 16.53 7.81929 17.9592 10.7726 17.96C10.8826 17.96 10.9935 17.96 11.106 17.9533C15.9343 17.8008 19.7901 13.85 19.7901 8.99834C19.7901 4.05 15.7793 0.0391693 10.831 0.0391693C10.6951 0.0391693 10.561 0.0425026 10.4268 0.048336L10.446 0.0475026H10.4418Z"
        fill="white" />
</svg>