<svg width="20" height="20" viewBox="0 0 20 20" fill="none" xmlns="http://www.w3.org/2000/svg">
<path fill-rule="evenodd" clip-rule="evenodd" d="M19.4983 8.84017L7.31425 0.136833C7.19642 0.051 7.057 0.001 6.90942 0.001C6.40775 0.001 6.00117 0.581 6 1.29767V18.7035C6.00058 19.4193 6.40717 20.0002 6.90883 20.0002C7.05642 20.0002 7.19583 19.9502 7.3195 19.8602L7.31425 19.8635L19.4983 11.161C19.7982 10.9435 20 10.5052 20 10.001C20 9.49683 19.7982 9.0585 19.503 8.84433L19.4977 8.841L19.4983 8.84017Z" fill="white"/>
<path d="M0 1C0 0.447716 0.447715 0 1 0H3C3.55228 0 4 0.447715 4 1V19C4 19.5523 3.55228 20 3 20H1C0.447715 20 0 19.5523 0 19V1Z" fill="white"/>
</svg>
